PERFORMER "Deep Dish"
TITLE "Essential Mix (2004-08-29)"
FILE "Deep Dish - Essential Mix 2004.mp3" MP3
  TRACK 01 AUDIO
    TITLE "I Love You"
    PERFORMER "Toni Rojas & Marcos Cruz"
    INDEX 01 00:00:00
  TRACK 02 AUDIO
    TITLE "Love Song (Skylark Mix)"
    PERFORMER "Syntax"
    INDEX 01 07:48:00
  TRACK 03 AUDIO
    TITLE "Fly Life vs. Music Is The Answer"
    PERFORMER "Basement Jaxx vs. Danny Tenaglia Bootleg"
    INDEX 01 15:35:00
  TRACK 04 AUDIO
    TITLE "Stormy Dance"
    PERFORMER "Deep Dish vs. The Doors"
    INDEX 01 21:41:00
  TRACK 05 AUDIO
    TITLE "Flash Dance (Raul Riconi Remix)"
    PERFORMER "Deep Dish"
    INDEX 01 27:16:00
  TRACK 06 AUDIO
    TITLE "Adventures Of Cronas EP"
    PERFORMER "Filipe & Nicholas Bacher"
    INDEX 01 34:16:01
  TRACK 07 AUDIO
    TITLE "ID"
    PERFORMER "Dylan Rhymes"
    INDEX 01 39:39:00
  TRACK 08 AUDIO
    TITLE "Bad Magic"
    PERFORMER "London Residents"
    INDEX 01 45:40:01
  TRACK 09 AUDIO
    TITLE "ID"
    PERFORMER "Valentino Kanzyani"
    INDEX 01 50:56:04
  TRACK 10 AUDIO
    TITLE "4 Da Underground"
    PERFORMER "Cronix"
    INDEX 01 56:54:01
  TRACK 11 AUDIO
    TITLE "Greece 2004 (Chus Remix)"
    PERFORMER "Three Drives"
    INDEX 01 63:40:31
  TRACK 12 AUDIO
    TITLE "ID"
    PERFORMER "Chus & Cebalos"
    INDEX 01 69:39:01
  TRACK 13 AUDIO
    TITLE "Don't Stop, Go"
    PERFORMER "Hydroponix"
    INDEX 01 77:58:01
  TRACK 14 AUDIO
    TITLE "Song No. 6 (Tim Deluxe Mix)"
    PERFORMER "Blur"
    INDEX 01 83:40:01
  TRACK 15 AUDIO
    TITLE "Flashdance (David Guetta Mix)"
    PERFORMER "Deep Dish"
    INDEX 01 89:29:00
  TRACK 16 AUDIO
    TITLE "Owner Of A Lonely Heart (Armin Van Buuren Mix)"
    PERFORMER "Yess"
    INDEX 01 96:21:01
  TRACK 17 AUDIO
    TITLE "Let's Get Ill' (Armin Van Burren Mix)"
    PERFORMER "P. Diddy"
    INDEX 01 103:45:01
  TRACK 18 AUDIO
    TITLE "Say Hello"
    PERFORMER "Deep Dish"
    INDEX 01 111:05:70 